<svg width="100" height="102" viewBox="0 0 100 102" fill="none" xmlns="http://www.w3.org/2000/svg">
<path d="M67.6024 9.8984H63.6024V6.1992C63.6024 3.3008 61.3016 1 58.4032 1H42.3012C39.4028 1 37.102 3.3008 37.102 6.1992V9.8984H33.102C25.3012 9.8984 19 16.1992 19 24.0004V82.0004C19 89.8012 25.3008 96.1024 33.102 96.1024H67.602C75.4028 96.1024 81.704 89.8016 81.704 82.0004V24.0004C81.6024 16.1996 75.3017 9.8984 67.602 9.8984H67.6024ZM74.2001 81.8984C74.2001 85.5976 71.2001 88.5976 67.5009 88.5976L33.0009 88.6015C29.3017 88.6015 26.3017 85.6015 26.3017 81.9023V23.9023C26.3017 20.2031 29.3017 17.2031 33.0009 17.2031H67.5009C71.2001 17.2031 74.2001 20.2031 74.2001 23.9023V81.8984Z" fill="black"/>
<path d="M96 4L4 97M4 5.00001L96 98" stroke="black" stroke-width="8" stroke-linecap="round"/>
</svg>
