<svg width="63" height="96" viewBox="0 0 63 96" fill="none" xmlns="http://www.w3.org/2000/svg">
<path d="M24.8015 48.0003H32.6023L28.5007 59.1023C27.8015 61.0007 28.8015 63.1023 30.6999 63.9031C31.0983 64.1023 31.5983 64.1023 32.0007 64.1023C33.5007 64.1023 34.8991 63.2039 35.5007 61.7039L41.3991 45.7039C41.7975 44.6023 41.6999 43.3055 41.0007 42.3055C40.3014 41.3055 39.1999 40.7039 38.0007 40.7039H30.1999L34.1022 29.5009C34.8014 27.6025 33.8014 25.5009 31.903 24.7001C30.0046 24.0009 27.903 25.0009 27.2038 26.8993L21.3054 42.8993C20.9069 44.0009 21.0046 45.2977 21.7038 46.2977C22.403 47.3993 23.5007 48.0008 24.8015 48.0008V48.0003Z" fill="black"/>
<path d="M48.6024 8.8984H44.6024V5.1992C44.6024 2.3008 42.3016 0 39.4032 0H23.3012C20.4028 0 18.102 2.3008 18.102 5.1992V8.8984H14.102C6.3012 8.8984 0 15.1992 0 23.0004V81.0004C0 88.8012 6.3008 95.1024 14.102 95.1024H48.602C56.4028 95.1024 62.704 88.8016 62.704 81.0004V23.0004C62.6024 15.1996 56.3017 8.8984 48.602 8.8984H48.6024ZM55.2001 80.8984C55.2001 84.5976 52.2001 87.5976 48.5009 87.5976L14.0009 87.6015C10.3017 87.6015 7.3017 84.6015 7.3017 80.9023V22.9023C7.3017 19.2031 10.3017 16.2031 14.0009 16.2031H48.5009C52.2001 16.2031 55.2001 19.2031 55.2001 22.9023V80.8984Z" fill="black"/>
<path d="M43.6993 71.8984H18.9023C16.9023 71.8984 15.2031 73.5976 15.2031 75.5976C15.2031 77.5976 16.9023 79.2968 18.9023 79.2968H43.7033C45.7033 79.2968 47.4025 77.5976 47.4025 75.5976C47.4025 73.6015 45.8009 71.8984 43.6994 71.8984H43.6993Z" fill="black"/>
</svg>
