<svg viewBox="0 0 26 30" width="26" height="30" xmlns="http://www.w3.org/2000/svg"><g fill="none" fill-rule="evenodd"><path fill-opacity=".01" fill="#FFF" d="M0 0h26v30H0z"/><path d="M12.535 22.745l-5.383 2.83a1 1 0 01-1.45-1.055l1.027-5.993a1 1 0 00-.287-.885l-4.355-4.245a1 1 0 01.554-1.706l6.018-.874a1 1 0 00.753-.547l2.691-5.453a1 1 0 011.794 0l2.69 5.453a1 1 0 00.754.547l6.018.874a1 1 0 01.554 1.706l-4.355 4.245a1 1 0 00-.287.885l1.028 5.993a1 1 0 01-1.451 1.054l-5.383-2.83a1 1 0 00-.93 0z" fill="#FEC600"/></g></svg>