<svg width="94" height="94" viewBox="0 0 94 94" fill="none" xmlns="http://www.w3.org/2000/svg">
<path d="M24.6109 18.4137L16.92 10.7306L10.8955 16.7826L18.5436 24.4658L24.6109 18.4137ZM12.8182 42.7078H0V51.2922H12.8182V42.7078ZM51.2727 0H42.7273V12.6621H51.2727V0V0ZM83.1046 16.7826L77.08 10.7306L69.4318 18.4137L75.4564 24.4658L83.1046 16.7826ZM69.3891 75.5863L77.0373 83.3123L83.0618 77.2603L75.3709 69.5772L69.3891 75.5863ZM81.1818 42.7078V51.2922H94V42.7078H81.1818ZM47 21.2466C32.8573 21.2466 21.3636 32.7927 21.3636 47C21.3636 61.2073 32.8573 72.7534 47 72.7534C61.1427 72.7534 72.6364 61.2073 72.6364 47C72.6364 32.7927 61.1427 21.2466 47 21.2466ZM42.7273 94H51.2727V81.3379H42.7273V94ZM10.8955 77.2174L16.92 83.2694L24.5682 75.5434L18.5436 69.4913L10.8955 77.2174Z" fill="black"/>
</svg>
