<svg width="2669" height="586" viewBox="0 0 2669 586" fill="none" xmlns="http://www.w3.org/2000/svg">
<path d="M230.393 576L0.104143 55.031H118.47L315.745 525.272H278.706L475.176 55.031H591.931L364.058 576H230.393ZM759.729 585.662C709.269 585.662 664.715 577.61 626.065 561.506C587.951 545.402 558.159 522.051 536.687 491.453C515.214 460.319 504.478 422.205 504.478 377.114C504.478 332.022 515.214 293.909 536.687 262.774C558.159 231.103 587.951 207.215 626.065 191.111C664.715 175.007 709.269 166.955 759.729 166.955C810.189 166.955 854.207 175.007 891.783 191.111C929.896 207.215 959.689 231.103 981.161 262.774C1002.63 293.909 1013.37 332.022 1013.37 377.114C1013.37 422.205 1002.63 460.319 981.161 491.453C959.689 522.051 929.896 545.402 891.783 561.506C854.207 577.61 810.189 585.662 759.729 585.662ZM759.729 505.142C787.643 505.142 812.604 500.311 834.613 490.648C857.159 480.449 874.874 465.955 887.757 447.167C900.64 427.842 907.082 404.491 907.082 377.114C907.082 349.737 900.64 326.386 887.757 307.061C874.874 287.199 857.427 272.169 835.418 261.969C813.409 251.77 788.18 246.67 759.729 246.67C731.815 246.67 706.585 251.77 684.039 261.969C661.494 272.169 643.511 286.931 630.091 306.256C617.207 325.581 610.766 349.2 610.766 377.114C610.766 404.491 617.207 427.842 630.091 447.167C642.974 465.955 660.688 480.449 683.234 490.648C705.78 500.311 731.278 505.142 759.729 505.142ZM1050.49 14.7706H1155.17V576H1050.49V14.7706ZM1168.82 175.812H1479.63V257.138H1168.82V175.812ZM1271.88 66.3039H1376.56V576H1271.88V66.3039ZM1687.18 584.857C1647.45 584.857 1611.22 576.268 1578.47 559.091C1546.27 541.376 1520.5 516.951 1501.17 485.817C1482.39 454.145 1472.99 417.643 1472.99 376.309C1472.99 333.901 1482.65 297.13 1501.98 265.995C1521.3 234.861 1547.34 210.704 1580.08 193.527C1613.37 175.812 1650.94 166.955 1692.81 166.955C1738.98 166.955 1776.02 176.349 1803.93 195.137C1832.38 213.388 1853.05 238.35 1865.93 270.021C1878.82 301.693 1885.26 337.122 1885.26 376.309C1885.26 399.928 1881.5 424.084 1873.98 448.777C1866.47 472.933 1854.93 495.479 1839.36 516.415C1823.79 536.813 1803.39 553.454 1778.16 566.338C1752.94 578.684 1722.61 584.857 1687.18 584.857ZM1721 504.337C1752.67 504.337 1780.04 498.969 1803.13 488.232C1826.21 477.496 1843.92 462.466 1856.27 443.141C1868.62 423.816 1874.79 401.538 1874.79 376.309C1874.79 348.932 1868.35 325.849 1855.46 307.061C1843.12 287.736 1825.4 273.242 1802.32 263.58C1779.78 253.38 1752.67 248.281 1721 248.281C1676.44 248.281 1641.82 260.09 1617.12 283.71C1592.43 306.792 1580.08 337.659 1580.08 376.309C1580.08 402.075 1585.99 424.621 1597.8 443.946C1609.61 462.734 1625.98 477.496 1646.92 488.232C1668.39 498.969 1693.08 504.337 1721 504.337ZM1874.79 175.812H1979.47V576H1882.04C1882.04 576 1881.23 570.9 1879.62 560.701C1878.55 549.965 1877.47 536.545 1876.4 520.441C1875.33 504.337 1874.79 488.501 1874.79 472.933V175.812ZM2145.87 0.276902V92.0705H2024.28V0.276902H2145.87ZM2032.33 175.812H2137.01V576H2032.33V175.812ZM2668.11 418.179C2665.42 453.072 2654.15 483.133 2634.29 508.363C2614.96 533.592 2588.12 552.917 2553.77 566.338C2519.41 579.221 2478.62 585.662 2431.38 585.662C2381.99 585.662 2337.7 577.879 2298.52 562.311C2259.87 546.207 2229.27 522.856 2206.72 492.258C2184.71 461.124 2173.71 422.742 2173.71 377.114C2173.71 331.485 2184.71 293.104 2206.72 261.969C2229.27 230.835 2259.87 207.215 2298.52 191.111C2337.7 175.007 2381.99 166.955 2431.38 166.955C2478.62 166.955 2519.14 173.665 2552.96 187.085C2586.78 199.968 2613.35 218.756 2632.68 243.449C2652.54 268.142 2664.08 297.935 2667.3 332.827H2571.48C2562.36 305.987 2545.45 285.052 2520.75 270.021C2496.06 254.991 2466.27 247.475 2431.38 247.475C2403.46 247.475 2377.96 252.307 2354.88 261.969C2332.34 271.632 2314.08 286.125 2300.13 305.45C2286.71 324.239 2280 348.126 2280 377.114C2280 405.564 2286.71 429.452 2300.13 448.777C2313.55 467.565 2331.8 481.791 2354.88 491.453C2377.96 500.579 2403.46 505.142 2431.38 505.142C2468.95 505.142 2499.55 497.627 2523.17 482.596C2547.33 467.565 2563.7 446.093 2572.29 418.179H2668.11Z" fill="white"/>
</svg>
